# Alias OBJ Model File
# Exported from SketchUp, (c) 2000-2012 Trimble Navigation Limited
# File units = inches

mtllib 4d9a38a8-d5e2-4ae3-aced-dbbcb26bf5dd.mtl

g Mesh1 Model

usemtl Wood_Veneer_02
v 36.6557 0 -24.7844
vt -3.05464 2.06536
vn 0 -1 -0
v 36.6557 0 -36.7844
vt -3.05464 3.06536
v 96.6557 0 -36.7844
vt -8.05464 3.06536
v 96.6557 0 -24.7844
vt -8.05464 2.06536
f 1/1/1 2/2/1 3/3/1 4/4/1 

vt -3.06536 0
vn -1 0 -0
vt -2.06536 0
v 36.6557 17.5 -24.7844
vt -2.06536 1.45833
v 36.6557 17.5 -36.7844
vt -3.06536 1.45833
f 2/5/2 1/6/2 5/7/2 6/8/2 

vt 3.05464 0
vn 0 0 1
v 37.329 0.673337 -24.7844
vt 3.11075 0.0561115
vt 3.05464 1.45833
f 1/9/3 7/10/3 5/11/3

v 95.9823 0.673337 -24.7844
vt 7.99853 0.0561115
f 7/10/3 1/9/3 8/12/3

vt 8.05464 0
f 4/13/3 8/12/3 1/9/3

v 96.6557 17.5 -24.7844
vt 8.05464 1.45833
f 8/12/3 4/13/3 9/14/3

vt 2.06536 0
vn 1 0 -0
vt 3.06536 0
v 96.6557 17.5 -36.7844
vt 3.06536 1.45833
vt 2.06536 1.45833
f 4/15/4 3/16/4 10/17/4 9/18/4 

vt -8.05464 0
vn 0 0 -1
vt -3.05464 0
vt -3.05464 1.45833
vt -8.05464 1.45833
f 3/19/5 2/20/5 6/21/5 10/22/5 

vt 3.05464 3.06536
vn 0 1 -0
vt 3.05464 2.06536
vt 8.05464 2.06536
vt 8.05464 3.06536
f 6/23/6 5/24/6 9/25/6 10/26/6 

v 37.329 16.8267 -24.7844
vt 3.11075 1.40222
f 5/11/3 11/27/3 9/14/3

v 37.329 8.75 -24.7844
vt 3.11075 0.729167
f 5/11/3 12/28/3 11/27/3

v 37.329 7.44451 -24.7844
vt 3.11075 0.620376
f 5/11/3 13/29/3 12/28/3

f 5/11/3 7/10/3 13/29/3

vt 2.06536 0.620376
vt 2.06536 0.0561115
v 37.329 0.673337 -30.7844
vt 2.56536 0.0561115
v 37.329 7.44451 -30.7844
vt 2.56536 0.620376
f 13/30/4 7/31/4 14/32/4 15/33/4 

vt 3.11075 2.06536
v 51.4966 0.673337 -24.7844
vt 4.29139 2.06536
v 51.4966 0.673337 -30.7844
vt 4.29139 2.56536
vt 3.11075 2.56536
f 7/34/6 16/35/6 17/36/6 14/37/6 

v 52.878 0.673337 -24.7844
vt 4.4065 0.0561115
vt 4.29139 0.0561115
f 7/10/3 18/38/3 16/39/3

v 67.2975 0.673337 -24.7844
vt 5.60812 0.0561115
f 7/10/3 19/40/3 18/38/3

v 69.0408 0.673337 -24.7844
vt 5.7534 0.0561115
f 7/10/3 20/41/3 19/40/3

v 82.5116 0.673337 -24.7844
vt 6.87597 0.0561115
f 7/10/3 21/42/3 20/41/3

v 83.9623 0.673337 -24.7844
vt 6.99686 0.0561115
f 7/10/3 22/43/3 21/42/3

f 7/10/3 8/12/3 22/43/3

vt 6.99686 2.06536
vt 7.99853 2.06536
v 95.9823 0.673337 -30.7844
vt 7.99853 2.56536
v 83.9623 0.673337 -30.7844
vt 6.99686 2.56536
f 22/44/6 8/45/6 23/46/6 24/47/6 

vt -2.06536 0.0561115
v 95.9823 7.44451 -24.7844
vt -2.06536 0.620376
v 95.9823 7.44451 -30.7844
vt -2.56536 0.620376
vt -2.56536 0.0561115
f 8/48/2 25/49/2 26/50/2 23/51/2 

vt 7.99853 0.620376
f 8/12/3 9/14/3 25/52/3

v 95.9823 8.75 -24.7844
vt 7.99853 0.729167
f 25/52/3 9/14/3 27/53/3

v 95.9823 16.8267 -24.7844
vt 7.99853 1.40222
f 27/53/3 9/14/3 28/54/3

v 83.9623 16.8267 -24.7844
vt 6.99686 1.40222
f 28/54/3 9/14/3 29/55/3

v 82.5116 16.8267 -24.7844
vt 6.87597 1.40222
f 29/55/3 9/14/3 30/56/3

v 69.0408 16.8267 -24.7844
vt 5.7534 1.40222
f 30/56/3 9/14/3 31/57/3

v 67.2975 16.8267 -24.7844
vt 5.60812 1.40222
f 31/57/3 9/14/3 32/58/3

v 52.878 16.8267 -24.7844
vt 4.4065 1.40222
f 32/58/3 9/14/3 33/59/3

v 51.4966 16.8267 -24.7844
vt 4.29139 1.40222
f 33/59/3 9/14/3 34/60/3

f 34/60/3 9/14/3 11/27/3

vt -4.29139 2.06536
vt -3.11075 2.06536
v 37.329 16.8267 -30.7844
vt -3.11075 2.56536
v 51.4966 16.8267 -30.7844
vt -4.29139 2.56536
f 34/61/1 11/62/1 35/63/1 36/64/1 

vt 2.06536 1.40222
vt 2.06536 0.729167
v 37.329 8.75 -30.7844
vt 2.56536 0.729167
vt 2.56536 1.40222
f 11/65/4 12/66/4 37/67/4 35/68/4 

v 51.4966 8.75 -24.7844
v 51.4966 8.75 -30.7844
f 12/34/6 38/35/6 39/36/6 37/37/6 

v 52.878 8.75 -24.7844
vt 4.4065 0.729167
vt 4.29139 0.729167
f 12/28/3 40/69/3 38/70/3

v 67.2975 8.75 -24.7844
vt 5.60812 0.729167
f 12/28/3 41/71/3 40/69/3

v 69.0408 8.75 -24.7844
vt 5.7534 0.729167
f 12/28/3 42/72/3 41/71/3

v 82.5116 8.75 -24.7844
vt 6.87597 0.729167
f 12/28/3 43/73/3 42/72/3

v 83.9623 8.75 -24.7844
vt 6.99686 0.729167
f 12/28/3 44/74/3 43/73/3

f 12/28/3 27/53/3 44/74/3

f 12/28/3 13/29/3 27/53/3

v 51.4966 7.44451 -24.7844
vt 4.29139 0.620376
f 45/75/3 27/53/3 13/29/3

v 52.878 7.44451 -24.7844
vt 4.4065 0.620376
f 46/76/3 27/53/3 45/75/3

v 67.2975 7.44451 -24.7844
vt 5.60812 0.620376
f 47/77/3 27/53/3 46/76/3

v 69.0408 7.44451 -24.7844
vt 5.7534 0.620376
f 48/78/3 27/53/3 47/77/3

v 82.5116 7.44451 -24.7844
vt 6.87597 0.620376
f 49/79/3 27/53/3 48/78/3

v 83.9623 7.44451 -24.7844
vt 6.99686 0.620376
f 50/80/3 27/53/3 49/79/3

f 25/52/3 27/53/3 50/80/3

vt -7.99853 2.06536
vt -6.99686 2.06536
v 83.9623 7.44451 -30.7844
vt -6.99686 2.56536
vt -7.99853 2.56536
f 25/81/1 50/82/1 51/83/1 26/84/1 

f 50/30/4 22/31/4 24/32/4 51/33/4 

f 50/80/3 21/42/3 22/43/3

f 21/42/3 50/80/3 49/79/3

v 82.5116 7.44451 -30.7844
v 82.5116 0.673337 -30.7844
f 21/48/2 49/49/2 52/50/2 53/51/2 

vt -6.87597 2.06536
vt -5.7534 2.06536
v 69.0408 7.44451 -30.7844
vt -5.7534 2.56536
vt -6.87597 2.56536
f 49/85/1 48/86/1 54/87/1 52/88/1 

v 69.0408 0.673337 -30.7844
f 48/30/4 20/31/4 55/32/4 54/33/4 

f 48/78/3 19/40/3 20/41/3

f 19/40/3 48/78/3 47/77/3

v 67.2975 7.44451 -30.7844
v 67.2975 0.673337 -30.7844
f 19/48/2 47/49/2 56/50/2 57/51/2 

vt -5.60812 2.06536
vt -4.4065 2.06536
v 52.878 7.44451 -30.7844
vt -4.4065 2.56536
vt -5.60812 2.56536
f 47/89/1 46/90/1 58/91/1 56/92/1 

v 52.878 0.673337 -30.7844
f 46/30/4 18/31/4 59/32/4 58/33/4 

f 46/76/3 16/39/3 18/38/3

f 16/39/3 46/76/3 45/75/3

v 51.4966 7.44451 -30.7844
f 16/48/2 45/49/2 60/50/2 17/51/2 

f 45/61/1 13/62/1 15/63/1 60/64/1 

f 17/39/3 60/75/3 15/29/3 14/10/3 

vt 4.4065 2.06536
vt 5.60812 2.06536
vt 5.60812 2.56536
vt 4.4065 2.56536
f 18/93/6 19/94/6 57/95/6 59/96/6 

f 57/40/3 56/77/3 58/76/3 59/38/3 

vt 5.7534 2.06536
vt 6.87597 2.06536
vt 6.87597 2.56536
vt 5.7534 2.56536
f 20/97/6 21/98/6 53/99/6 55/100/6 

f 53/42/3 52/79/3 54/78/3 55/41/3 

f 23/12/3 26/52/3 51/80/3 24/43/3 

v 95.9823 8.75 -30.7844
v 83.9623 8.75 -30.7844
f 44/44/6 27/45/6 61/46/6 62/47/6 

vt -2.06536 0.729167
vt -2.06536 1.40222
v 95.9823 16.8267 -30.7844
vt -2.56536 1.40222
vt -2.56536 0.729167
f 27/101/2 28/102/2 63/103/2 61/104/2 

v 83.9623 16.8267 -30.7844
f 28/81/1 29/82/1 64/83/1 63/84/1 

f 29/65/4 44/66/4 62/67/4 64/68/4 

f 29/55/3 43/73/3 44/74/3

f 43/73/3 29/55/3 30/56/3

v 82.5116 16.8267 -30.7844
v 82.5116 8.75 -30.7844
f 43/101/2 30/102/2 65/103/2 66/104/2 

v 69.0408 16.8267 -30.7844
f 30/85/1 31/86/1 67/87/1 65/88/1 

v 69.0408 8.75 -30.7844
f 31/65/4 42/66/4 68/67/4 67/68/4 

f 31/57/3 41/71/3 42/72/3

f 41/71/3 31/57/3 32/58/3

v 67.2975 16.8267 -30.7844
v 67.2975 8.75 -30.7844
f 41/101/2 32/102/2 69/103/2 70/104/2 

v 52.878 16.8267 -30.7844
f 32/89/1 33/90/1 71/91/1 69/92/1 

v 52.878 8.75 -30.7844
f 33/65/4 40/66/4 72/67/4 71/68/4 

f 33/59/3 38/70/3 40/69/3

f 38/70/3 33/59/3 34/60/3

f 38/101/2 34/102/2 36/103/2 39/104/2 

f 35/27/3 37/28/3 39/70/3 36/60/3 

f 40/93/6 41/94/6 70/95/6 72/96/6 

f 71/59/3 72/69/3 70/71/3 69/58/3 

f 42/97/6 43/98/6 66/99/6 68/100/6 

f 67/57/3 68/72/3 66/73/3 65/56/3 

f 64/55/3 62/74/3 61/53/3 63/54/3 

