# Blender v2.78 (sub 0) OBJ File: 'CHAHIN_GRADUATION_CAP.blend'
# www.blender.org
mtllib CHAHIN_GRADUATION_CAP.mtl
o Cube.025_Cube.043
v -0.392957 0.137894 0.393110
v -0.392957 0.420610 0.393110
v -0.392957 0.137894 -0.392805
v -0.392957 0.420610 -0.392805
v 0.392958 0.137894 0.393110
v 0.392958 0.420610 0.393110
v 0.392958 0.137894 -0.392805
v 0.392958 0.420610 -0.392805
v -0.510915 0.137894 0.000153
v -0.510915 0.420610 0.000153
v 0.510916 0.137894 0.000153
v 0.510916 0.420610 0.000153
v 0.000000 0.137894 -0.510763
v 0.000000 0.420610 -0.510763
v 0.000000 0.137894 0.511068
v 0.000000 0.420610 0.511068
v -0.483186 0.426574 0.000153
v -0.747457 0.416816 0.747609
v -0.035304 0.453707 0.035457
v -0.747457 0.416816 -0.747304
v -0.035304 0.453707 -0.035152
v 0.747457 0.416816 0.747609
v 0.035305 0.453707 0.035457
v 0.747457 0.416816 -0.747304
v 0.035305 0.453707 -0.035152
v -0.035304 0.477187 0.035457
v -0.035304 0.477187 -0.035152
v 0.035305 0.477187 -0.035152
v 0.035305 0.477187 0.035457
v -0.007924 0.452620 0.035457
v 0.007925 0.452620 0.035457
v -0.007924 0.466032 0.035457
v 0.007925 0.466032 0.035457
v 0.004594 0.416825 0.747649
v -0.004593 0.416825 0.747649
v 0.004594 0.419624 0.754902
v -0.004593 0.419624 0.754902
v 0.004547 0.210295 0.747686
v -0.004546 0.210295 0.747686
v 0.004547 0.210295 0.754865
v -0.004546 0.210295 0.754865
v 0.023073 0.210295 0.733061
v -0.023072 0.210295 0.733061
v 0.023073 0.210295 0.769490
v -0.023072 0.210295 0.769490
v 0.023073 -0.522579 0.733061
v -0.023072 -0.522579 0.733061
v 0.023073 -0.522579 0.769490
v -0.023072 -0.522579 0.769490
v 0.023073 0.203345 0.769490
v 0.023073 0.203345 0.733061
v -0.023072 0.203345 0.733061
v -0.023072 0.203345 0.769490
v -0.483186 0.137894 0.000153
v -0.371630 0.137894 0.371783
v 0.000000 0.137894 -0.483034
v -0.371630 0.137894 -0.371478
v 0.483187 0.137894 0.000153
v 0.371631 0.137894 -0.371478
v 0.000000 0.137894 0.483339
v 0.371631 0.137894 0.371783
v -0.371630 0.426574 0.371783
v 0.000000 0.426574 -0.483034
v -0.371630 0.426574 -0.371478
v 0.483187 0.426574 0.000153
v 0.371631 0.426574 -0.371478
v 0.000000 0.426574 0.483339
v 0.371631 0.426574 0.371783
vt 0.6061 0.1868
vt 0.4068 0.1868
vt 0.4068 0.1429
vt 0.6061 0.1429
vt 0.7058 0.2307
vt 0.7058 0.3185
vt 0.6061 0.3185
vt 0.6061 0.2307
vt 0.7058 0.1429
vt 0.7058 0.2307
vt 0.6061 0.2307
vt 0.6061 0.1429
vt 0.5065 0.3185
vt 0.5065 0.2307
vt 0.6061 0.2307
vt 0.6061 0.3185
vt 0.4641 0.0335
vt 0.5682 0.0335
vt 0.5661 0.0365
vt 0.4677 0.0365
vt 0.5977 0.1429
vt 0.4937 0.1429
vt 0.4957 0.1399
vt 0.5941 0.1399
vt 0.8054 0.1429
vt 0.8054 0.2307
vt 0.6061 0.2307
vt 0.4068 0.2307
vt 0.4068 0.1176
vt 0.4068 0.0718
vt 0.4136 0.0727
vt 0.4136 0.1160
vt 0.4068 0.3185
vt 0.4068 0.2307
vt 0.8054 0.2307
vt 0.8054 0.3185
vt 0.4068 0.3676
vt 0.2262 0.2880
vt 0.2262 0.2801
vt 0.4068 0.2005
vt 0.2083 0.2801
vt 0.0277 0.2005
vt 0.2083 0.2880
vt 0.0277 0.3676
vt 0.0277 0.2005
vt 0.0277 0.0335
vt 0.4068 0.0335
vt 0.4068 0.2005
vt 0.6881 0.1390
vt 0.6881 0.1311
vt 0.7047 0.1311
vt 0.7047 0.1390
vt 0.6550 0.1232
vt 0.6729 0.1232
vt 0.6729 0.1311
vt 0.6550 0.1311
vt 0.6881 0.1311
vt 0.6716 0.1390
vt 0.6716 0.1311
vt 0.6716 0.1311
vt 0.6716 0.1390
vt 0.6550 0.1390
vt 0.6550 0.1311
vt 0.6729 0.1311
vt 0.6729 0.1232
vt 0.6895 0.1232
vt 0.6895 0.1311
vt 0.9165 0.7559
vt 0.9165 0.7488
vt 0.9301 0.7488
vt 0.9301 0.7559
vt 0.4076 0.7098
vt 0.4168 0.7098
vt 0.7747 0.7851
vt 0.7705 0.7861
vt 0.9301 0.5932
vt 0.9437 0.5932
vt 0.9408 0.7300
vt 0.9329 0.7300
vt 0.7515 0.5932
vt 0.7747 0.5981
vt 0.9165 0.5932
vt 0.9301 0.5932
vt 0.9272 0.7312
vt 0.9193 0.7312
vt 0.4076 0.7812
vt 0.3844 0.7861
vt 0.0406 0.6695
vt 0.0497 0.6694
vt 0.9352 0.7347
vt 0.9290 0.7347
vt 0.9165 0.7312
vt 0.9477 0.7312
vt 0.9437 0.5932
vt 0.9516 0.5932
vt 0.9515 0.7042
vt 0.9437 0.7042
vt 0.4034 0.5932
vt 0.4076 0.5942
vt 0.9516 0.5932
vt 0.9594 0.5932
vt 0.9594 0.7027
vt 0.9516 0.7027
vt 0.9165 0.9781
vt 0.8852 0.9781
vt 0.8852 0.5932
vt 0.9165 0.5932
vt 0.9352 0.7365
vt 0.9477 0.7400
vt 0.9290 0.7365
vt 0.9165 0.7400
vt 0.9477 0.7400
vt 0.9477 0.7488
vt 0.9165 0.7488
vt 0.9165 0.7400
vt 0.8143 0.5969
vt 0.8539 0.5969
vt 0.8539 0.9818
vt 0.8143 0.9818
vt 0.8852 0.9781
vt 0.8539 0.9781
vt 0.8539 0.5932
vt 0.8852 0.5932
vt 0.7747 0.5969
vt 0.8143 0.5969
vt 0.8143 0.9818
vt 0.7747 0.9818
vt 0.7747 0.5932
vt 0.8143 0.5932
vt 0.8852 0.9818
vt 0.8539 0.9818
vt 0.8143 0.5932
vt 0.8539 0.5932
vt 0.9165 0.9818
vt 0.8852 0.9818
vt 0.8780 0.3185
vt 0.9723 0.3185
vt 0.9723 0.4081
vt 0.8780 0.4081
vt 0.6550 0.0335
vt 0.7492 0.0335
vt 0.7492 0.1232
vt 0.6550 0.1232
vt 0.4068 0.3185
vt 0.5011 0.3185
vt 0.5011 0.4081
vt 0.4068 0.4081
vt 0.8435 0.0335
vt 0.8435 0.1232
vt 0.6550 0.0588
vt 0.6483 0.0604
vt 0.6550 0.1046
vt 0.6483 0.1037
vt 0.5953 0.3185
vt 0.5953 0.4081
vt 0.6895 0.3185
vt 0.6895 0.4081
vt 0.7838 0.3185
vt 0.7838 0.4081
vt 0.7838 0.3185
vt 0.7838 0.4081
vn -0.9578 0.0000 -0.2875
vn 0.2875 0.0000 -0.9578
vn 0.9578 0.0000 0.2875
vn -0.2875 0.0000 0.9578
vn 0.0000 -1.0000 0.0000
vn 0.9578 0.0000 -0.2875
vn -0.9578 0.0000 0.2875
vn 0.2875 0.0000 0.9578
vn -0.2875 0.0000 -0.9578
vn -0.0517 0.9987 0.0000
vn 0.0000 0.9987 -0.0517
vn 0.0517 0.9987 0.0000
vn 0.0000 0.9987 0.0517
vn 0.0000 0.0000 -1.0000
vn 0.0000 1.0000 0.0000
vn 1.0000 0.0000 0.0000
vn -1.0000 0.0000 0.0000
vn 0.0000 0.0000 1.0000
vn -1.0000 -0.0002 0.0000
vn 0.0000 -0.9987 -0.0502
vn -1.0000 -0.0020 0.0045
vn 0.0000 0.9979 0.0644
vn 1.0000 -0.0020 0.0045
vn 0.0000 -0.0002 1.0000
vn 1.0000 -0.0002 0.0000
vn 0.0000 -0.0002 -1.0000
usemtl Material.007
s off
f 9/1/1 10/2/1 4/3/1 3/4/1
f 13/5/2 14/6/2 8/7/2 7/8/2
f 11/9/3 12/10/3 6/11/3 5/12/3
f 15/13/4 16/14/4 2/15/4 1/16/4
f 7/17/5 11/18/5 58/19/5 59/20/5
f 1/21/5 9/22/5 54/23/5 55/24/5
f 7/25/6 8/26/6 12/10/6 11/9/6
f 1/27/7 2/28/7 10/2/7 9/1/7
f 3/29/5 13/30/5 56/31/5 57/32/5
f 13/30/5 7/17/5 59/20/5 56/31/5
f 5/33/8 6/34/8 16/14/8 15/13/8
f 3/35/9 4/36/9 14/6/9 13/5/9
f 18/37/10 19/38/10 21/39/10 20/40/10
f 20/40/11 21/39/11 25/41/11 24/42/11
f 24/42/12 25/41/12 23/43/12 22/44/12
f 22/44/13 23/43/13 19/38/13 18/37/13
f 20/45/5 24/46/5 22/47/5 18/48/5
f 25/49/14 21/50/14 27/51/14 28/52/14
f 28/53/15 27/54/15 26/55/15 29/56/15
f 23/57/16 25/49/16 28/58/16 29/59/16
f 21/60/17 19/61/17 26/62/17 27/63/17
f 19/64/18 23/65/18 29/66/18 26/67/18
f 30/68/14 32/69/14 33/70/14 31/71/14
f 37/72/19 35/73/19 39/74/19 41/75/19
f 30/76/20 31/77/20 34/78/20 35/79/20
f 32/80/21 30/81/21 35/73/21 37/72/21
f 33/82/22 32/83/22 37/84/22 36/85/22
f 31/86/23 33/87/23 36/88/23 34/89/23
f 38/90/15 40/91/15 44/92/15 42/93/15
f 36/94/24 37/95/24 41/96/24 40/97/24
f 34/89/25 36/88/25 40/98/25 38/99/25
f 35/100/26 34/101/26 38/102/26 39/103/26
f 51/104/16 50/105/16 48/106/16 46/107/16
f 39/108/15 38/90/15 42/93/15 43/109/15
f 41/110/15 39/108/15 43/109/15 45/111/15
f 40/91/15 41/110/15 45/111/15 44/92/15
f 47/112/5 46/113/5 48/114/5 49/115/5
f 52/116/14 51/117/14 46/118/14 47/119/14
f 53/120/17 52/121/17 47/122/17 49/123/17
f 50/124/18 53/125/18 49/126/18 48/127/18
f 44/128/18 45/129/18 53/125/18 50/124/18
f 45/130/17 43/131/17 52/121/17 53/120/17
f 43/132/14 42/133/14 51/117/14 52/116/14
f 42/134/16 44/135/16 50/105/16 51/104/16
f 56/136/4 59/137/4 66/138/4 63/139/4
f 55/140/6 54/141/6 17/142/6 62/143/6
f 59/144/7 58/145/7 65/146/7 66/147/7
f 54/141/3 57/148/3 64/149/3 17/142/3
f 11/18/5 5/150/5 61/151/5 58/19/5
f 9/22/5 3/29/5 57/32/5 54/23/5
f 15/152/5 1/21/5 55/24/5 60/153/5
f 5/150/5 15/152/5 60/153/5 61/151/5
f 58/145/1 61/154/1 68/155/1 65/146/1
f 61/154/9 60/156/9 67/157/9 68/155/9
f 57/158/8 56/136/8 63/139/8 64/159/8
f 60/156/2 55/160/2 62/161/2 67/157/2
